<svg viewBox="0 0 256 256" xmlns="http://www.w3.org/2000/svg" style="background: transparent;">
  <!-- Gradient definitions -->
  <defs>
    <!-- 3D Black hole gradients -->
    <radialGradient id="blackHole3D" cx="40%" cy="35%" r="60%">
      <stop offset="0%" style="stop-color:#000000;stop-opacity:1" />
      <stop offset="50%" style="stop-color:#222222;stop-opacity:1" />
      <stop offset="85%" style="stop-color:#444444;stop-opacity:0.98" />
      <stop offset="100%" style="stop-color:#888888;stop-opacity:0.7" />
    </radialGradient>
    
    <!-- 3D Accretion disk -->
    <radialGradient id="accretionDisk3D" cx="40%" cy="35%" r="60%">
      <stop offset="0%" style="stop-color:#ff4500;stop-opacity:0.1" />
      <stop offset="25%" style="stop-color:#ff6b35;stop-opacity:1" />
      <stop offset="60%" style="stop-color:#ff8c42;stop-opacity:0.9" />
      <stop offset="90%" style="stop-color:#ffd23f;stop-opacity:0.7" />
      <stop offset="100%" style="stop-color:#ffffff;stop-opacity:0.2" />
    </radialGradient>
    
    <!-- 3D Rule gradient -->
    <linearGradient id="rule3D" x1="0%" y1="0%" x2="100%" y2="100%">
      <stop offset="0%" style="stop-color:#5a6aff;stop-opacity:1" />
      <stop offset="30%" style="stop-color:#2d47ff;stop-opacity:1" />
      <stop offset="70%" style="stop-color:#1a20cc;stop-opacity:1" />
      <stop offset="100%" style="stop-color:#1719a3;stop-opacity:1" />
    </linearGradient>
    
    <!-- 3D highlight -->
    <linearGradient id="highlight3D" x1="0%" y1="0%" x2="100%" y2="100%">
      <stop offset="0%" style="stop-color:#bfc9ff;stop-opacity:0.9" />
      <stop offset="50%" style="stop-color:#7180ff;stop-opacity:0.5" />
      <stop offset="100%" style="stop-color:#2d37ff;stop-opacity:0.18" />
    </linearGradient>
    
    <!-- Glassy reflection for rule -->
    <radialGradient id="ruleGlass" cx="50%" cy="30%" r="80%">
      <stop offset="0%" style="stop-color:#fff;stop-opacity:0.28" />
      <stop offset="100%" style="stop-color:#fff;stop-opacity:0" />
    </radialGradient>
    
    <!-- Rotating objects gradient -->
    <radialGradient id="planet3D" cx="30%" cy="30%" r="70%">
      <stop offset="0%" style="stop-color:#4ad9ff;stop-opacity:1" />
      <stop offset="60%" style="stop-color:#2b9cff;stop-opacity:1" />
      <stop offset="100%" style="stop-color:#1a36ff;stop-opacity:1" />
    </radialGradient>
    
    <radialGradient id="asteroid3D" cx="30%" cy="30%" r="70%">
      <stop offset="0%" style="stop-color:#e0e0e0;stop-opacity:1" />
      <stop offset="60%" style="stop-color:#7a8cff;stop-opacity:1" />
      <stop offset="100%" style="stop-color:#1a20cc;stop-opacity:1" />
    </radialGradient>
    
    <radialGradient id="debris3D" cx="30%" cy="30%" r="70%">
      <stop offset="0%" style="stop-color:#ffd255;stop-opacity:1" />
      <stop offset="60%" style="stop-color:#ff8c20;stop-opacity:1" />
      <stop offset="100%" style="stop-color:#ff4221;stop-opacity:1" />
    </radialGradient>
    
    <!-- Compass gradients -->
    <radialGradient id="compass3D" cx="30%" cy="30%" r="70%">
      <stop offset="0%" style="stop-color:#fff700;stop-opacity:1" />
      <stop offset="50%" style="stop-color:#ffe347;stop-opacity:1" />
      <stop offset="100%" style="stop-color:#ffb300;stop-opacity:1" />
    </radialGradient>
    
    <linearGradient id="compassNeedle" x1="0%" y1="0%" x2="100%" y2="100%">
      <stop offset="0%" style="stop-color:#ff6b6b;stop-opacity:1" />
      <stop offset="50%" style="stop-color:#ff2a52;stop-opacity:1" />
      <stop offset="100%" style="stop-color:#c44536;stop-opacity:1" />
    </linearGradient>
    
    <linearGradient id="compassNeedleS" x1="0%" y1="0%" x2="100%" y2="100%">
      <stop offset="0%" style="stop-color:#e8e8e8;stop-opacity:1" />
      <stop offset="50%" style="stop-color:#d0d0d0;stop-opacity:1" />
      <stop offset="100%" style="stop-color:#a8a8a8;stop-opacity:1" />
    </linearGradient>
    
    <filter id="shadow3D" x="-50%" y="-50%" width="200%" height="200%">
      <feDropShadow dx="4" dy="4" stdDeviation="3" flood-color="#000000" flood-opacity="0.3"/>
    </filter>
    
    <filter id="compassGlow" x="-50%" y="-50%" width="200%" height="200%">
      <feGaussianBlur stdDeviation="3" result="coloredBlur"/>
      <feMerge> 
        <feMergeNode in="coloredBlur"/>
        <feMergeNode in="SourceGraphic"/>
      </feMerge>
    </filter>
    
    <!-- Subtle background gradient -->
    <radialGradient id="bgGradient" cx="50%" cy="50%" r="80%">
      <stop offset="0%" style="stop-color:#232946;stop-opacity:1" />
      <stop offset="100%" style="stop-color:#121212;stop-opacity:1" />
    </radialGradient>
    
    <!-- Glow for orbiting objects -->
    <filter id="orbitGlow" x="-30%" y="-30%" width="160%" height="160%">
      <feGaussianBlur stdDeviation="2.5" result="glow"/>
      <feMerge>
        <feMergeNode in="glow"/>
        <feMergeNode in="SourceGraphic"/>
      </feMerge>
    </filter>
    
    <!-- Soft blur for accretion disk -->
    <filter id="diskBlur" x="-10%" y="-10%" width="120%" height="120%">
      <feGaussianBlur stdDeviation="2.5"/>
    </filter>
    
    <!-- Soft blur for event horizon -->
    <filter id="horizonBlur" x="-10%" y="-10%" width="120%" height="120%">
      <feGaussianBlur stdDeviation="1.5"/>
    </filter>
    
    <!-- Nebula gradient -->
    <radialGradient id="nebulaGradient" cx="60%" cy="40%" r="90%">
      <stop offset="0%" stop-color="#ffb3ec" stop-opacity="0.38"/>
      <stop offset="30%" stop-color="#7fdbff" stop-opacity="0.28"/>
      <stop offset="60%" stop-color="#baffc9" stop-opacity="0.22"/>
      <stop offset="100%" stop-color="#fff" stop-opacity="0"/>
    </radialGradient>
    
    <!-- Black hole halo -->
    <radialGradient id="holeHalo" cx="50%" cy="50%" r="60%">
      <stop offset="0%" stop-color="#fff" stop-opacity="0.18"/>
      <stop offset="60%" stop-color="#00eaff" stop-opacity="0.09"/>
      <stop offset="100%" style="stop-color:#fff;stop-opacity:0"/>
    </radialGradient>
    
    <!-- Diffraction effect on camera lens -->
    <radialGradient id="lensDiffraction" cx="50%" cy="50%" r="50%">
      <stop offset="0%" stop-color="#fff" stop-opacity="0.5"/>
      <stop offset="40%" stop-color="#87ceeb" stop-opacity="0.2"/>
      <stop offset="60%" stop-color="#ffb3ec" stop-opacity="0.15"/>
      <stop offset="100%" stop-color="#fff" stop-opacity="0"/>
    </radialGradient>
    
    <!-- Effet de lentille gravitationnelle autour du trou noir -->
    <radialGradient id="lensingHalo" cx="50%" cy="50%" r="60%">
      <stop offset="0%" stop-color="#fff" stop-opacity="0.18"/>
      <stop offset="60%" stop-color="#00eaff" stop-opacity="0.13"/>
      <stop offset="100%" stop-color="#fff" stop-opacity="0"/>
    </radialGradient>
    
    <!-- Effet de glow intense autour du disque d'accrétion -->
    <radialGradient id="accretionGlow" cx="50%" cy="50%" r="60%">
      <stop offset="0%" stop-color="#fff700" stop-opacity="0.25"/>
      <stop offset="60%" stop-color="#ff8c42" stop-opacity="0.18"/>
      <stop offset="100%" stop-color="#ff4500" stop-opacity="0"/>
    </radialGradient>
  </defs>
  
  <!-- Subtle background -->
  <rect x="0" y="0" width="256" height="256" fill="url(#bgGradient)"/>
  <!-- Aurora effect around black hole -->
  <ellipse cx="128" cy="128" rx="110" ry="44" fill="url(#auroraGradient)" opacity="0.22" filter="url(#diskBlur)"/>
  <!-- Starfield -->
  <g id="starfield">
    <circle cx="30" cy="40" r="1.1" fill="#fff" opacity="0.8"/>
    <circle cx="220" cy="60" r="0.8" fill="#fff" opacity="0.7"/>
    <circle cx="180" cy="200" r="1.3" fill="#b3e0ff" opacity="0.7"/>
    <circle cx="60" cy="210" r="0.7" fill="#fff" opacity="0.6"/>
    <circle cx="200" cy="120" r="0.9" fill="#fff" opacity="0.8"/>
    <circle cx="100" cy="60" r="0.6" fill="#fff" opacity="0.5"/>
    <circle cx="150" cy="30" r="0.7" fill="#fff" opacity="0.7"/>
    <circle cx="80" cy="180" r="1.2" fill="#fff" opacity="0.6"/>
    <circle cx="210" cy="180" r="0.6" fill="#fff" opacity="0.5"/>
    <circle cx="40" cy="120" r="0.8" fill="#fff" opacity="0.7"/>
  </g>
  <!-- Aurora gradient definition -->
  <radialGradient id="auroraGradient" cx="50%" cy="50%" r="80%">
    <stop offset="0%" stop-color="#00eaff" stop-opacity="0.7"/>
    <stop offset="40%" stop-color="#7f5fff" stop-opacity="0.3"/>
    <stop offset="80%" stop-color="#ff6bcb" stop-opacity="0.1"/>
    <stop offset="100%" stop-color="#fff" stop-opacity="0"/>
  </radialGradient>
  <!-- Glow du disque d'accrétion -->
  <ellipse cx="128" cy="128" rx="100" ry="44" fill="url(#accretionGlow)" opacity="0.7" filter="url(#diskBlur)"/>
  <!-- Disque d'accrétion agrandi et saturé -->
  <ellipse cx="128" cy="128" rx="92" ry="38" fill="url(#accretionDisk3D)" opacity="0.98" filter="url(#diskBlur)" transform="rotate(-10 128 128)"/>
  <ellipse cx="128" cy="128" rx="74" ry="30" fill="none" stroke="#ffd23f" stroke-width="3.2" opacity="0.85" filter="url(#diskBlur)" transform="rotate(-10 128 128)"/>
  <!-- Arc relativiste lumineux -->
  <path d="M40,128 a92,38 0 0,1 176,0" fill="none" stroke="#fffbe7" stroke-width="10" opacity="0.7" filter="url(#diskBlur)"/>
  <!-- Trou noir agrandi et plus net -->
  <circle cx="128" cy="128" r="60" fill="url(#blackHole3D)" filter="url(#shadow3D)"/>
  <circle cx="128" cy="128" r="44" fill="#000000"/>
  <!-- Halo lumineux interne plus fort -->
  <radialGradient id="innerHalo" cx="50%" cy="50%" r="50%">
    <stop offset="0%" stop-color="#fff" stop-opacity="0.22"/>
    <stop offset="80%" stop-color="#fff700" stop-opacity="0.13"/>
    <stop offset="100%" stop-color="#fff" stop-opacity="0"/>
  </radialGradient>
  <ellipse cx="128" cy="128" rx="44" ry="44" fill="url(#innerHalo)" opacity="0.8"/>
  <!-- Arc de distorsion lumineuse (effet lentille) -->
  <path d="M60,128 a68,68 0 0,1 136,0" fill="none" stroke="#00eaff" stroke-width="6" opacity="0.35" filter="url(#diskBlur)"/>
  <!-- Halo bleu autour de la règle -->
  <circle cx="128" cy="128" r="125" fill="none" stroke="#00eaff" stroke-width="7" opacity="0.13" filter="url(#horizonBlur)"/>
  <!-- Caméra au centre - plus brillant et reflet accentué -->
  <g transform="translate(128,128)" filter="url(#compassGlow)">
    <!-- Corps de la caméra -->
    <rect x="-22" y="-18" width="44" height="36" rx="3" fill="url(#compass3D)" stroke="#cd853f" stroke-width="1.5"/>
    <rect x="-20.5" y="-16.5" width="41" height="33" rx="1.5" fill="#232323"/>
    <!-- Objectif principal -->
    <circle cx="0" cy="0" r="19" fill="url(#compass3D)" stroke="#cd853f" stroke-width="1.5"/>
    <circle cx="0" cy="0" r="17.5" fill="#1a1a1a"/>
    <circle cx="0" cy="0" r="14.5" fill="#333333"/>
    <circle cx="0" cy="0" r="9" fill="#000000"/>
    <!-- Reflet sur l'objectif accentué -->
    <ellipse cx="-1.5" cy="-4.5" rx="5.2" ry="4.5" fill="#4a90e2" opacity="0.9"/>
    <ellipse cx="-0.8" cy="-4.0" rx="3.2" ry="1.8" fill="#87ceeb" opacity="1"/>
    <ellipse cx="2.5" cy="2.5" rx="2.5" ry="1.2" fill="#fff" opacity="0.5"/>
    <!-- Flash -->
    <rect x="-15" y="-21" width="11" height="5" rx="2" fill="#f0f0f0" stroke="#ccc" stroke-width="0.8"/>
    <!-- Viseur -->
    <rect x="11" y="-22" width="7.5" height="5" rx="0.8" fill="#666666" stroke="#444" stroke-width="0.8"/>
    <!-- Bouton déclencheur -->
    <circle cx="16" cy="-12" r="4.2" fill="#e74c3c" stroke="#c0392b" stroke-width="0.8"/>
    <circle cx="16" cy="-12" r="3.5" fill="#f39c12"/>
  </g>
  <!-- 3D Event horizon with depth - plus doux -->
  <circle cx="128" cy="128" r="40" fill="none" stroke="#444444" stroke-width="2" opacity="0.5" filter="url(#horizonBlur)"/>
  <circle cx="128" cy="128" r="42" fill="none" stroke="#666666" stroke-width="1" opacity="0.2" filter="url(#horizonBlur)"/>
  <!-- Rotating objects around the black hole - glow + vaisseau stylisé -->
  <g transform="translate(128,128)">
    <!-- Planet 1 - position at 45 degrees -->
    <g transform="rotate(45)">
      <circle cx="80" cy="0" r="6" fill="url(#planet3D)" filter="url(#orbitGlow)"/>
      <!-- Motion blur trail -->
      <ellipse cx="80" cy="0" rx="3" ry="12" fill="#4299e1" opacity="0.18"/>
    </g>
    <!-- Asteroid 1 - position at 120 degrees -->
    <g transform="rotate(120)">
      <circle cx="90" cy="0" r="4.5" fill="url(#asteroid3D)" filter="url(#orbitGlow)"/>
    </g>
    <!-- Debris 1 - position at 200 degrees -->
    <g transform="rotate(200)">
      <circle cx="80" cy="0" r="3" fill="url(#debris3D)" filter="url(#orbitGlow)"/>
    </g>
    <!-- Planet 2 - position at 300 degrees -->
    <g transform="rotate(300)">
      <circle cx="90" cy="0" r="6" fill="url(#planet3D)" filter="url(#orbitGlow)" />
    </g>
    <!-- Small debris cluster - position at 15 degrees -->
    <g transform="rotate(15)">
      <circle cx="79" cy="0" r="2.2" fill="url(#debris3D)" opacity="0.8" filter="url(#orbitGlow)"/>
      <circle cx="82" cy="1.5" r="1.5" fill="url(#asteroid3D)" opacity="0.6" filter="url(#orbitGlow)"/>
      <circle cx="85" cy="-1.5" r="1.5" fill="url(#debris3D)" opacity="0.7" filter="url(#orbitGlow)"/>
      <!-- Motion blur trail -->
      <ellipse cx="79" cy="0" rx="6" ry="1.2" fill="#f6ad55" opacity="0.18"/>
    </g>
    <!-- Asteroid 2 - position at 260 degrees -->
    <g transform="rotate(260)">
      <circle cx="74" cy="0" r="3.8" fill="url(#asteroid3D)" filter="url(#orbitGlow)"/>
    </g>
    <!-- Stylized spaceship at 330 deg, orbiting -->
    <g transform="rotate(330)">
      <g transform="translate(85,0) scale(0.8)">
        <ellipse cx="0" cy="0" rx="7" ry="3" fill="#fff" opacity="0.5" filter="url(#orbitGlow)"/>
        <ellipse cx="0" cy="0" rx="5" ry="2" fill="#fff" opacity="0.7"/>
        <rect x="-1.5" y="-2" width="3" height="4" rx="1" fill="#b3e0ff"/>
        <polygon points="0,-2 2,-6 -2,-6" fill="#00eaff" opacity="0.7"/>
      </g>
    </g>
  </g>
  <!-- Règle circulaire affinée et reflet -->
  <g transform="translate(128,128)">
    <!-- Main circular rule with 3D effect -->
    <circle cx="0" cy="0" r="120" fill="none" stroke="url(#rule3D)" stroke-width="7" filter="url(#shadow3D)"/>
    <circle cx="0" cy="0" r="116" fill="none" stroke="url(#highlight3D)" stroke-width="2.2"/>
    <!-- Glassy reflection -->
    <ellipse cx="0" cy="-40" rx="80" ry="18" fill="url(#ruleGlass)" opacity="0.18"/>
    <!-- 3D Measurement marks with depth -->
    <g stroke="url(#rule3D)" stroke-width="4">
      <!-- Major marks every 30 degrees -->
      <line x1="0" y1="-120" x2="0" y2="-98" transform="rotate(0)"/>
      <line x1="0" y1="-120" x2="0" y2="-98" transform="rotate(30)"/>
      <line x1="0" y1="-120" x2="0" y2="-98" transform="rotate(60)"/>
      <line x1="0" y1="-120" x2="0" y2="-98" transform="rotate(90)"/>
      <line x1="0" y1="-120" x2="0" y2="-98" transform="rotate(120)"/>
      <line x1="0" y1="-120" x2="0" y2="-98" transform="rotate(150)"/>
      <line x1="0" y1="-120" x2="0" y2="-98" transform="rotate(180)"/>
      <line x1="0" y1="-120" x2="0" y2="-98" transform="rotate(210)"/>
      <line x1="0" y1="-120" x2="0" y2="-98" transform="rotate(240)"/>
      <line x1="0" y1="-120" x2="0" y2="-98" transform="rotate(270)"/>
      <line x1="0" y1="-120" x2="0" y2="-98" transform="rotate(300)"/>
      <line x1="0" y1="-120" x2="0" y2="-98" transform="rotate(330)"/>
    </g>
    <!-- 3D highlight marks -->
    <g stroke="url(#highlight3D)" stroke-width="1.5" opacity="0.7">
      <line x1="0" y1="-118" x2="0" y2="-99" transform="rotate(0)"/>
      <line x1="0" y1="-118" x2="0" y2="-99" transform="rotate(30)"/>
      <line x1="0" y1="-118" x2="0" y2="-99" transform="rotate(60)"/>
      <line x1="0" y1="-118" x2="0" y2="-99" transform="rotate(90)"/>
      <line x1="0" y1="-118" x2="0" y2="-99" transform="rotate(120)"/>
      <line x1="0" y1="-118" x2="0" y2="-99" transform="rotate(150)"/>
      <line x1="0" y1="-118" x2="0" y2="-99" transform="rotate(180)"/>
      <line x1="0" y1="-118" x2="0" y2="-99" transform="rotate(210)"/>
      <line x1="0" y1="-118" x2="0" y2="-99" transform="rotate(240)"/>
      <line x1="0" y1="-118" x2="0" y2="-99" transform="rotate(270)"/>
      <line x1="0" y1="-118" x2="0" y2="-99" transform="rotate(300)"/>
      <line x1="0" y1="-118" x2="0" y2="-99" transform="rotate(330)"/>
    </g>
    <!-- Minor marks with 3D effect, plus discrets -->
    <g stroke="url(#rule3D)" stroke-width="2.2" opacity="0.35">
      <line x1="0" y1="-120" x2="0" y2="-107" transform="rotate(15)"/>
      <line x1="0" y1="-120" x2="0" y2="-107" transform="rotate(45)"/>
      <line x1="0" y1="-120" x2="0" y2="-107" transform="rotate(75)"/>
      <line x1="0" y1="-120" x2="0" y2="-107" transform="rotate(105)"/>
      <line x1="0" y1="-120" x2="0" y2="-107" transform="rotate(135)"/>
      <line x1="0" y1="-120" x2="0" y2="-107" transform="rotate(165)"/>
      <line x1="0" y1="-120" x2="0" y2="-107" transform="rotate(195)"/>
      <line x1="0" y1="-120" x2="0" y2="-107" transform="rotate(225)"/>
      <line x1="0" y1="-120" x2="0" y2="-107" transform="rotate(255)"/>
      <line x1="0" y1="-120" x2="0" y2="-107" transform="rotate(285)"/>
      <line x1="0" y1="-120" x2="0" y2="-107" transform="rotate(315)"/>
      <line x1="0" y1="-120" x2="0" y2="-107" transform="rotate(345)"/>
    </g>
  </g>
  <!-- 3D Crosshair at center - plus doux -->
  <g stroke="url(#rule3D)" stroke-width="2.2" opacity="0.7" filter="url(#shadow3D)">
    <line x1="116" y1="128" x2="140" y2="128"/>
    <line x1="128" y1="116" x2="128" y2="140"/>
  </g>
  <g stroke="url(#highlight3D)" stroke-width="1.2" opacity="0.8">
    <line x1="116" y1="128" x2="140" y2="128"/>
    <line x1="128" y1="116" x2="128" y2="140"/>
  </g>
  <!-- Nebula background -->
  <radialGradient id="nebulaGradient" cx="60%" cy="40%" r="90%">
    <stop offset="0%" stop-color="#ffb3ec" stop-opacity="0.38"/>
    <stop offset="30%" stop-color="#7fdbff" stop-opacity="0.28"/>
    <stop offset="60%" stop-color="#baffc9" stop-opacity="0.22"/>
    <stop offset="100%" stop-color="#fff" stop-opacity="0"/>
  </radialGradient>
  <ellipse cx="140" cy="100" rx="120" ry="60" fill="url(#nebulaGradient)" opacity="0.18"/>
  <!-- Shooting stars -->
  <g id="shootingStars">
    <line x1="40" y1="30" x2="70" y2="50" stroke="#fff" stroke-width="1.2" opacity="0.7" filter="url(#orbitGlow)"/>
    <line x1="200" y1="60" x2="230" y2="80" stroke="#b3e0ff" stroke-width="1.1" opacity="0.6" filter="url(#orbitGlow)"/>
    <line x1="60" y1="200" x2="90" y2="210" stroke="#ffb3ec" stroke-width="1.1" opacity="0.5" filter="url(#orbitGlow)"/>
  </g>
  <!-- Black hole halo -->
  <radialGradient id="holeHalo" cx="50%" cy="50%" r="60%">
    <stop offset="0%" stop-color="#fff" stop-opacity="0.18"/>
    <stop offset="60%" stop-color="#00eaff" stop-opacity="0.09"/>
    <stop offset="100%" style="stop-color:#fff;stop-opacity:0"/>
  </radialGradient>
  <ellipse cx="128" cy="128" rx="60" ry="60" fill="url(#holeHalo)" opacity="0.7"/>
  <!-- Diffraction effect on camera lens -->
  <radialGradient id="lensDiffraction" cx="50%" cy="50%" r="50%">
    <stop offset="0%" stop-color="#fff" stop-opacity="0.5"/>
    <stop offset="40%" stop-color="#87ceeb" stop-opacity="0.2"/>
    <stop offset="60%" stop-color="#ffb3ec" stop-opacity="0.15"/>
    <stop offset="100%" stop-color="#fff" stop-opacity="0"/>
  </radialGradient>
  <!-- Diffraction arc on lens -->
  <ellipse cx="0" cy="-6" rx="8" ry="2.2" fill="url(#lensDiffraction)" opacity="0.7"/>
</svg>