<svg viewBox="0 0 200 200" xmlns="http://www.w3.org/2000/svg">
  <!-- Gradient definitions -->
  <defs>
    <!-- 3D Black hole gradients -->
    <radialGradient id="blackHole3D" cx="40%" cy="35%" r="60%">
      <stop offset="0%" style="stop-color:#000000;stop-opacity:1" />
      <stop offset="50%" style="stop-color:#111111;stop-opacity:1" />
      <stop offset="85%" style="stop-color:#333333;stop-opacity:0.9" />
      <stop offset="100%" style="stop-color:#555555;stop-opacity:0.4" />
    </radialGradient>
    
    <!-- 3D Accretion disk -->
    <radialGradient id="accretionDisk3D" cx="40%" cy="35%" r="60%">
      <stop offset="0%" style="stop-color:#ff4500;stop-opacity:0" />
      <stop offset="30%" style="stop-color:#ff6b35;stop-opacity:0.8" />
      <stop offset="60%" style="stop-color:#ff8c42;stop-opacity:0.6" />
      <stop offset="90%" style="stop-color:#ffd23f;stop-opacity:0.3" />
      <stop offset="100%" style="stop-color:#ffffff;stop-opacity:0.1" />
    </radialGradient>
    
    <!-- 3D Rule gradient -->
    <linearGradient id="rule3D" x1="0%" y1="0%" x2="100%" y2="100%">
      <stop offset="0%" style="stop-color:#4a5568;stop-opacity:1" />
      <stop offset="30%" style="stop-color:#2d3748;stop-opacity:1" />
      <stop offset="70%" style="stop-color:#1a202c;stop-opacity:1" />
      <stop offset="100%" style="stop-color:#171923;stop-opacity:1" />
    </linearGradient>
    
    <!-- 3D highlight -->
    <linearGradient id="highlight3D" x1="0%" y1="0%" x2="100%" y2="100%">
      <stop offset="0%" style="stop-color:#718096;stop-opacity:0.8" />
      <stop offset="50%" style="stop-color:#4a5568;stop-opacity:0.4" />
      <stop offset="100%" style="stop-color:#2d3748;stop-opacity:0.1" />
    </linearGradient>
    
    <!-- Rotating objects gradient -->
    <radialGradient id="planet3D" cx="30%" cy="30%" r="70%">
      <stop offset="0%" style="stop-color:#4299e1;stop-opacity:1" />
      <stop offset="60%" style="stop-color:#2b6cb0;stop-opacity:1" />
      <stop offset="100%" style="stop-color:#1a365d;stop-opacity:1" />
    </radialGradient>
    
    <radialGradient id="asteroid3D" cx="30%" cy="30%" r="70%">
      <stop offset="0%" style="stop-color:#a0aec0;stop-opacity:1" />
      <stop offset="60%" style="stop-color:#4a5568;stop-opacity:1" />
      <stop offset="100%" style="stop-color:#1a202c;stop-opacity:1" />
    </radialGradient>
    
    <radialGradient id="debris3D" cx="30%" cy="30%" r="70%">
      <stop offset="0%" style="stop-color:#f6ad55;stop-opacity:1" />
      <stop offset="60%" style="stop-color:#dd6b20;stop-opacity:1" />
      <stop offset="100%" style="stop-color:#9c4221;stop-opacity:1" />
    </radialGradient>
    
    <!-- Compass gradients -->
    <radialGradient id="compass3D" cx="30%" cy="30%" r="70%">
      <stop offset="0%" style="stop-color:#ffd700;stop-opacity:1" />
      <stop offset="50%" style="stop-color:#ffb347;stop-opacity:1" />
      <stop offset="100%" style="stop-color:#cd853f;stop-opacity:1" />
    </radialGradient>
    
    <linearGradient id="compassNeedle" x1="0%" y1="0%" x2="100%" y2="100%">
      <stop offset="0%" style="stop-color:#ff6b6b;stop-opacity:1" />
      <stop offset="50%" style="stop-color:#ee5a52;stop-opacity:1" />
      <stop offset="100%" style="stop-color:#c44536;stop-opacity:1" />
    </linearGradient>
    
    <linearGradient id="compassNeedleS" x1="0%" y1="0%" x2="100%" y2="100%">
      <stop offset="0%" style="stop-color:#e8e8e8;stop-opacity:1" />
      <stop offset="50%" style="stop-color:#d0d0d0;stop-opacity:1" />
      <stop offset="100%" style="stop-color:#a8a8a8;stop-opacity:1" />
    </linearGradient>
    
    <filter id="shadow3D" x="-50%" y="-50%" width="200%" height="200%">
      <feDropShadow dx="3" dy="3" stdDeviation="2" flood-color="#000000" flood-opacity="0.3"/>
    </filter>
    
    <filter id="compassGlow" x="-50%" y="-50%" width="200%" height="200%">
      <feGaussianBlur stdDeviation="2" result="coloredBlur"/>
      <feMerge> 
        <feMergeNode in="coloredBlur"/>
        <feMergeNode in="SourceGraphic"/>
      </feMerge>
    </filter>
  </defs>
  
  <!-- 3D Accretion disk with perspective -->
  <ellipse cx="100" cy="100" rx="45" ry="15" fill="url(#accretionDisk3D)" opacity="0.9" transform="rotate(-10 100 100)"/>
  <ellipse cx="100" cy="100" rx="38" ry="12" fill="none" stroke="#ff8c42" stroke-width="0.5" opacity="0.4" transform="rotate(-10 100 100)"/>
  
  <!-- 3D Black hole with lighting -->
  <circle cx="100" cy="100" r="25" fill="url(#blackHole3D)" filter="url(#shadow3D)"/>
  <circle cx="100" cy="100" r="15" fill="#000000"/>
  
  <!-- Caméra au centre -->
  <g transform="translate(100,100)" filter="url(#compassGlow)">
    <!-- Corps de la caméra -->
    <rect x="-8" y="-6" width="16" height="12" rx="2" fill="url(#compass3D)" stroke="#cd853f" stroke-width="1"/>
    <rect x="-7" y="-5" width="14" height="10" rx="1" fill="#2c2c2c"/>
    
    <!-- Objectif principal -->
    <circle cx="0" cy="0" r="6" fill="url(#compass3D)" stroke="#cd853f" stroke-width="1"/>
    <circle cx="0" cy="0" r="5" fill="#1a1a1a"/>
    <circle cx="0" cy="0" r="3" fill="#333333"/>
    <circle cx="0" cy="0" r="2" fill="#000000"/>
    
    <!-- Reflet sur l'objectif -->
    <ellipse cx="-1" cy="-1" rx="1.5" ry="1" fill="#4a90e2" opacity="0.6"/>
    <ellipse cx="-0.5" cy="-0.5" rx="0.8" ry="0.5" fill="#87ceeb" opacity="0.8"/>
    
    <!-- Flash -->
    <rect x="-6" y="-8" width="4" height="2" rx="1" fill="#f0f0f0" stroke="#ccc" stroke-width="0.5"/>
    
    <!-- Viseur -->
    <rect x="4" y="-8" width="3" height="2" rx="0.5" fill="#666666" stroke="#444" stroke-width="0.5"/>
    
    <!-- Bouton déclencheur -->
    <circle cx="6" cy="-4" r="1.5" fill="#e74c3c" stroke="#c0392b" stroke-width="0.5"/>
    <circle cx="6" cy="-4" r="1" fill="#f39c12"/>
  </g>
  
  <!-- 3D Event horizon with depth -->
  <circle cx="100" cy="100" r="25" fill="none" stroke="#444444" stroke-width="1.5" opacity="0.6"/>
  <circle cx="100" cy="100" r="26" fill="none" stroke="#666666" stroke-width="0.5" opacity="0.3"/>
  
  <!-- Rotating objects around the black hole -->
  <g transform="translate(100,100)">
    <!-- Planet 1 - position at 45 degrees -->
    <g transform="rotate(45)">
      <circle cx="40" cy="0" r="4" fill="url(#planet3D)" filter="url(#shadow3D)"/>
      <!-- Motion blur trail -->
      <ellipse cx="40" cy="0" rx="2" ry="8" fill="#4299e1" opacity="0.2"/>
    </g>
    
    <!-- Asteroid 1 - position at 120 degrees -->
    <g transform="rotate(120)">
      <circle cx="40" cy="0" r="3" fill="url(#asteroid3D)" filter="url(#shadow3D)"/>
    </g>
    
    <!-- Debris 1 - position at 200 degrees -->
    <g transform="rotate(200)">
      <circle cx="40" cy="0" r="2" fill="url(#debris3D)" filter="url(#shadow3D)"/>
    </g>
    
    <!-- Planet 2 - position at 300 degrees -->
    <g transform="rotate(300)">
      <circle cx="46" cy="0" r="4" fill="url(#planet3D)" filter="url(#shadow3D)" />
    </g>
    
    <!-- Small debris cluster - position at 15 degrees -->
    <g transform="rotate(15)">
      <circle cx="42" cy="0" r="1.5" fill="url(#debris3D)" opacity="0.8"/>
      <circle cx="44" cy="1" r="1" fill="url(#asteroid3D)" opacity="0.6"/>
      <circle cx="46" cy="-1" r="1" fill="url(#debris3D)" opacity="0.7"/>
      <!-- Motion blur trail -->
      <ellipse cx="42" cy="0" rx="4" ry="0.8" fill="#f6ad55" opacity="0.2"/>
    </g>
    
    <!-- Asteroid 2 - position at 260 degrees -->
    <g transform="rotate(260)">
      <circle cx="36" cy="0" r="2.5" fill="url(#asteroid3D)" filter="url(#shadow3D)"/>
    </g>
  </g>
  
  <g transform="translate(100,100)">
    <!-- Main circular rule with 3D effect -->
    <circle cx="0" cy="0" r="57" fill="none" stroke="url(#rule3D)" stroke-width="6" filter="url(#shadow3D)"/>
    <circle cx="0" cy="0" r="55" fill="none" stroke="url(#highlight3D)" stroke-width="2"/>
    
    <!-- 3D Measurement marks with depth -->
    <g stroke="url(#rule3D)" stroke-width="3">
      <!-- Major marks every 30 degrees -->
      <line x1="0" y1="-57" x2="0" y2="-45" transform="rotate(0)"/>
      <line x1="0" y1="-57" x2="0" y2="-45" transform="rotate(30)"/>
      <line x1="0" y1="-57" x2="0" y2="-45" transform="rotate(60)"/>
      <line x1="0" y1="-57" x2="0" y2="-45" transform="rotate(90)"/>
      <line x1="0" y1="-57" x2="0" y2="-45" transform="rotate(120)"/>
      <line x1="0" y1="-57" x2="0" y2="-45" transform="rotate(150)"/>
      <line x1="0" y1="-57" x2="0" y2="-45" transform="rotate(180)"/>
      <line x1="0" y1="-57" x2="0" y2="-45" transform="rotate(210)"/>
      <line x1="0" y1="-57" x2="0" y2="-45" transform="rotate(240)"/>
      <line x1="0" y1="-57" x2="0" y2="-45" transform="rotate(270)"/>
      <line x1="0" y1="-57" x2="0" y2="-45" transform="rotate(300)"/>
      <line x1="0" y1="-57" x2="0" y2="-45" transform="rotate(330)"/>
    </g>
    
    <!-- 3D highlight marks -->
    <g stroke="url(#highlight3D)" stroke-width="1" opacity="0.8">
      <line x1="0" y1="-56" x2="0" y2="-46" transform="rotate(0)"/>
      <line x1="0" y1="-56" x2="0" y2="-46" transform="rotate(30)"/>
      <line x1="0" y1="-56" x2="0" y2="-46" transform="rotate(60)"/>
      <line x1="0" y1="-56" x2="0" y2="-46" transform="rotate(90)"/>
      <line x1="0" y1="-56" x2="0" y2="-46" transform="rotate(120)"/>
      <line x1="0" y1="-56" x2="0" y2="-46" transform="rotate(150)"/>
      <line x1="0" y1="-56" x2="0" y2="-46" transform="rotate(180)"/>
      <line x1="0" y1="-56" x2="0" y2="-46" transform="rotate(210)"/>
      <line x1="0" y1="-56" x2="0" y2="-46" transform="rotate(240)"/>
      <line x1="0" y1="-56" x2="0" y2="-46" transform="rotate(270)"/>
      <line x1="0" y1="-56" x2="0" y2="-46" transform="rotate(300)"/>
      <line x1="0" y1="-56" x2="0" y2="-46" transform="rotate(330)"/>
    </g>
    
    <!-- Minor marks with 3D effect -->
    <g stroke="url(#rule3D)" stroke-width="1.5" opacity="0.7">
      <line x1="0" y1="-57" x2="0" y2="-50" transform="rotate(15)"/>
      <line x1="0" y1="-57" x2="0" y2="-50" transform="rotate(45)"/>
      <line x1="0" y1="-57" x2="0" y2="-50" transform="rotate(75)"/>
      <line x1="0" y1="-57" x2="0" y2="-50" transform="rotate(105)"/>
      <line x1="0" y1="-57" x2="0" y2="-50" transform="rotate(135)"/>
      <line x1="0" y1="-57" x2="0" y2="-50" transform="rotate(165)"/>
      <line x1="0" y1="-57" x2="0" y2="-50" transform="rotate(195)"/>
      <line x1="0" y1="-57" x2="0" y2="-50" transform="rotate(225)"/>
      <line x1="0" y1="-57" x2="0" y2="-50" transform="rotate(255)"/>
      <line x1="0" y1="-57" x2="0" y2="-50" transform="rotate(285)"/>
      <line x1="0" y1="-57" x2="0" y2="-50" transform="rotate(315)"/>
      <line x1="0" y1="-57" x2="0" y2="-50" transform="rotate(345)"/>
    </g>
    

  </g>
  
  <!-- 3D Crosshair at center -->
  <g stroke="url(#rule3D)" stroke-width="2" opacity="0.8" filter="url(#shadow3D)">
    <line x1="95" y1="100" x2="105" y2="100"/>
    <line x1="100" y1="95" x2="100" y2="105"/>
  </g>
  <g stroke="url(#highlight3D)" stroke-width="1" opacity="0.9">
    <line x1="95" y1="100" x2="105" y2="100"/>
    <line x1="100" y1="95" x2="100" y2="105"/>
  </g>
</svg>